<?xml version="1.0" encoding="iso-8859-1"?>
<!-- Generator: Adobe Illustrator 19.0.0, SVG Export Plug-In . SVG Version: 6.00 Build 0)  -->
<svg version="1.1" id="Layer_1" xmlns="http://www.w3.org/2000/svg" xmlns:xlink="http://www.w3.org/1999/xlink" x="0px" y="0px"
	 viewBox="0 0 512 512" style="enable-background:new 0 0 512 512;" xml:space="preserve">
<g>
	<g>
		<path d="M437.333,213.333c5.888,0,10.667-4.779,10.667-10.667v-128c0-29.397-23.936-53.333-53.333-53.333H53.333
			C23.936,21.333,0,45.269,0,74.667v362.667c0,29.397,23.936,53.333,53.333,53.333h341.333c29.397,0,53.333-23.936,53.333-53.333
			v-64c0-5.888-4.779-10.667-10.667-10.667c-5.888,0-10.667,4.779-10.667,10.667v64c0,17.643-14.357,32-32,32H53.333
			c-17.643,0-32-14.357-32-32V128h405.333v74.667C426.667,208.555,431.445,213.333,437.333,213.333z M21.333,106.667v-32
			c0-17.643,14.357-32,32-32h341.333c17.643,0,32,14.357,32,32v32H21.333z"/>
	</g>
</g>
<g>
	<g>
		<circle cx="53.333" cy="74.667" r="10.667"/>
	</g>
</g>
<g>
	<g>
		<circle cx="96" cy="74.667" r="10.667"/>
	</g>
</g>
<g>
	<g>
		<circle cx="138.667" cy="74.667" r="10.667"/>
	</g>
</g>
<g>
	<g>
		<path d="M394.667,234.667h-21.333c-5.888,0-10.667,4.779-10.667,10.667v85.333c0,5.888,4.779,10.667,10.667,10.667
			c5.888,0,10.667-4.779,10.667-10.667v-32h10.667c17.643,0,32-14.357,32-32C426.667,249.024,412.309,234.667,394.667,234.667z
			 M394.667,277.333H384V256h10.667c5.888,0,10.667,4.779,10.667,10.667S400.555,277.333,394.667,277.333z"/>
	</g>
</g>
<g>
	<g>
		<path d="M480,234.667h-21.333c-5.888,0-10.667,4.779-10.667,10.667v85.333c0,5.888,4.779,10.667,10.667,10.667
			s10.667-4.779,10.667-10.667v-32H480c17.643,0,32-14.357,32-32C512,249.024,497.643,234.667,480,234.667z M480,277.333h-10.667
			V256H480c5.888,0,10.667,4.779,10.667,10.667S485.888,277.333,480,277.333z"/>
	</g>
</g>
<g>
	<g>
		<path d="M340.672,326.912l-32-85.333c-3.136-8.32-16.875-8.32-19.989,0l-32,85.333c-2.069,5.525,0.725,11.669,6.229,13.739
			c5.504,2.069,11.648-0.704,13.739-6.229L282.048,320h33.216l5.397,14.421c1.621,4.267,5.696,6.912,10.005,6.912
			c1.259,0,2.517-0.213,3.776-0.683C339.947,338.581,342.741,332.437,340.672,326.912z M290.048,298.667l8.619-22.955l8.619,22.955
			H290.048z"/>
	</g>
</g>
<g>
</g>
<g>
</g>
<g>
</g>
<g>
</g>
<g>
</g>
<g>
</g>
<g>
</g>
<g>
</g>
<g>
</g>
<g>
</g>
<g>
</g>
<g>
</g>
<g>
</g>
<g>
</g>
<g>
</g>
</svg>
