<?xml version="1.0" encoding="iso-8859-1"?>
<!-- Generator: Adobe Illustrator 19.0.0, SVG Export Plug-In . SVG Version: 6.00 Build 0)  -->
<svg version="1.1" id="Layer_1" xmlns="http://www.w3.org/2000/svg" xmlns:xlink="http://www.w3.org/1999/xlink" x="0px" y="0px"
	 viewBox="0 0 512 512" style="enable-background:new 0 0 512 512;" xml:space="preserve">
<g>
	<g>
		<path d="M458.667,0H53.333C23.915,0,0,23.936,0,53.333v405.333C0,488.064,23.915,512,53.333,512h405.333
			C488.085,512,512,488.064,512,458.667V53.333C512,23.936,488.085,0,458.667,0z M490.667,458.667c0,17.643-14.357,32-32,32H53.333
			c-17.643,0-32-14.357-32-32v-352h469.333V458.667z M490.667,85.333H21.333v-32c0-17.643,14.357-32,32-32h405.333
			c17.643,0,32,14.357,32,32V85.333z"/>
	</g>
</g>
<g>
	<g>
		<circle cx="53.333" cy="53.333" r="10.667"/>
	</g>
</g>
<g>
	<g>
		<circle cx="96" cy="53.333" r="10.667"/>
	</g>
</g>
<g>
	<g>
		<circle cx="138.667" cy="53.333" r="10.667"/>
	</g>
</g>
<g>
	<g>
		<path d="M167.531,280.491l-64-64c-4.16-4.16-10.923-4.16-15.083,0c-4.16,4.16-4.16,10.923,0,15.083l56.448,56.448l-56.448,56.448
			c-4.16,4.16-4.16,10.923,0,15.083c2.091,2.069,4.821,3.115,7.552,3.115s5.461-1.045,7.531-3.093l64-64
			C171.691,291.413,171.691,284.651,167.531,280.491z"/>
	</g>
</g>
<g>
	<g>
		<path d="M309.333,320H202.667c-5.888,0-10.667,4.779-10.667,10.667s4.779,10.667,10.667,10.667h106.667
			c5.888,0,10.667-4.779,10.667-10.667S315.221,320,309.333,320z"/>
	</g>
</g>
<g>
</g>
<g>
</g>
<g>
</g>
<g>
</g>
<g>
</g>
<g>
</g>
<g>
</g>
<g>
</g>
<g>
</g>
<g>
</g>
<g>
</g>
<g>
</g>
<g>
</g>
<g>
</g>
<g>
</g>
</svg>
