<?xml version="1.0" encoding="iso-8859-1"?>
<!-- Generator: Adobe Illustrator 19.0.0, SVG Export Plug-In . SVG Version: 6.00 Build 0)  -->
<svg version="1.1" id="Layer_1" xmlns="http://www.w3.org/2000/svg" xmlns:xlink="http://www.w3.org/1999/xlink" x="0px" y="0px"
	 viewBox="0 0 512.005 512.005" style="enable-background:new 0 0 512.005 512.005;" xml:space="preserve">
<g>
	<g>
		<path d="M508.885,109.819c-16.149-16.149-57.109-3.221-79.659,5.675l-32.704-32.704c8.896-22.549,21.803-63.552,5.696-79.659
			c-4.16-4.16-10.923-4.16-15.083,0c-4.16,4.16-4.16,10.923,0,15.083c4.053,4.053,0.085,29.845-10.709,57.429l-68.587,9.792
			c-5.269,0.747-9.173,5.248-9.173,10.56c0,3.605,0.213,7.147,0.533,10.667h-57.536c-10.219,0-19.904,2.944-28.331,8.256V74.661
			c0-5.888-4.779-10.667-10.667-10.667S192,68.773,192,74.661v59.563l-53.355,53.355l-35.115-35.115
			c-4.16-4.16-10.923-4.16-15.083,0c-4.16,4.16-4.16,10.923,0,15.083l35.115,35.115l-31.445,31.467
			c-6.507,6.507-11.605,14.144-15.957,22.165c-0.512-0.085-0.96-0.299-1.493-0.299h-64C4.779,255.995,0,260.773,0,266.661
			s4.779,10.667,10.667,10.667h57.024C65.515,285.371,64,293.605,64,302.011v49.984c0,26.304,10.667,50.133,27.861,67.477
			c0.107,0.128,0.149,0.277,0.256,0.405c0.107,0.107,0.277,0.149,0.384,0.256c17.365,17.195,41.195,27.861,67.499,27.861h49.984
			c8.491,0,16.683-1.472,24.683-3.605v56.939c0,5.888,4.779,10.667,10.667,10.667S256,507.216,256,501.328v-64
			c0-0.491-0.213-0.917-0.277-1.387c7.979-4.352,15.573-9.472,22.165-16.064l31.445-31.445l35.115,35.115
			c2.091,2.069,4.821,3.115,7.552,3.115c2.731,0,5.461-1.045,7.531-3.115c4.16-4.16,4.16-10.923,0-15.083l-35.115-35.136
			l53.333-53.355h59.584c5.888,0,10.667-4.779,10.667-10.667s-4.779-10.645-10.667-10.645h-40.277
			c5.312-8.427,8.277-18.155,8.277-28.352v-57.536c3.52,0.32,7.061,0.555,10.667,0.555c5.312,0,9.813-3.904,10.581-9.131
			l9.792-68.608c27.563-10.795,53.376-14.763,57.429-10.688c4.16,4.16,10.923,4.16,15.083,0
			C513.045,120.741,513.045,113.979,508.885,109.819z M85.333,351.995v-49.984c0-19.648,7.979-38.891,21.867-52.8l38.976-38.976
			c0,0,0.021,0,0.021-0.021c0-0.021,0-0.021,0.021-0.021l63.915-63.957c0.043-0.043,0.085-0.064,0.107-0.107l8.789-8.789
			c5.973-5.931,14.208-9.344,22.635-9.344h61.547c4.544,15.979,12.309,30.613,22.677,43.029L100.395,396.496
			C91.072,384.037,85.333,368.72,85.333,351.995z M384,270.309c0,8.555-3.328,16.576-9.365,22.635l-8.832,8.832l-63.957,63.979
			c-0.021,0.021-0.021,0.021-0.043,0.021c-0.021,0-0.021,0.021-0.021,0.043l-38.955,38.955
			c-14.144,14.123-32.875,21.888-52.843,21.888H160c-16.747,0-32.043-5.739-44.501-15.083l225.493-225.472
			c12.416,10.368,27.029,18.133,43.008,22.656V270.309z M406.784,191.568c-45.611-4.331-82.005-40.747-86.357-86.357l59.797-8.555
			l35.115,35.115L406.784,191.568z"/>
	</g>
</g>
<g>
</g>
<g>
</g>
<g>
</g>
<g>
</g>
<g>
</g>
<g>
</g>
<g>
</g>
<g>
</g>
<g>
</g>
<g>
</g>
<g>
</g>
<g>
</g>
<g>
</g>
<g>
</g>
<g>
</g>
</svg>
