<?xml version="1.0" encoding="iso-8859-1"?>
<!-- Generator: Adobe Illustrator 19.0.0, SVG Export Plug-In . SVG Version: 6.00 Build 0)  -->
<svg version="1.1" id="Layer_1" xmlns="http://www.w3.org/2000/svg" xmlns:xlink="http://www.w3.org/1999/xlink" x="0px" y="0px"
	 viewBox="0 0 512.027 512.027" style="enable-background:new 0 0 512.027 512.027;" xml:space="preserve">
<g>
	<g>
		<path d="M399.083,320.005h38.272c5.888,0,10.667-4.779,10.667-10.667s-4.779-10.667-10.667-10.667h-40.277
			c5.312-8.427,8.256-18.133,8.256-28.331v-57.557c3.541,0.32,7.083,0.555,10.688,0.555c5.312,0,9.813-3.904,10.581-9.131
			l9.792-68.608c27.563-10.795,53.376-14.763,57.429-10.688c4.16,4.16,10.923,4.16,15.083,0c4.16-4.16,4.16-10.923,0-15.083
			c-16.149-16.149-57.109-3.221-79.659,5.675L396.544,82.8c8.896-22.549,21.803-63.552,5.696-79.659
			c-4.16-4.16-10.923-4.16-15.083,0c-4.16,4.16-4.16,10.923,0,15.083c4.053,4.053,0.085,29.845-10.709,57.429l-68.587,9.792
			c-5.269,0.747-9.173,5.248-9.173,10.56c0,3.605,0.213,7.168,0.533,10.688h-57.536c-10.112,0-19.733,2.923-28.117,8.149
			c-0.085-1.451-0.405-2.923-0.341-4.373c1.195-26.304-9.835-51.456-33.621-76.821c-20.352-21.696-47.083-33.109-74.261-33.621
			C81.621,0.325,59.029,8.603,39.979,23.984c-2.709,2.197-4.181,5.568-3.947,9.045c0.256,3.477,2.155,6.613,5.163,8.405
			l65.195,39.104c-1.941,19.605-13.525,36.8-31.253,45.973L16.768,91.483c-3.285-1.941-7.744-1.771-11.029,0.021
			c-3.243,1.771-5.333,5.077-5.547,8.747c-1.749,29.739,8.512,58.005,28.864,79.595c20.096,21.291,48.384,33.493,77.632,33.493
			c2.176,0,4.459-0.277,6.677-0.448l-21.227,21.248c-6.592,6.592-11.712,14.187-16.064,22.144c-0.469-0.064-0.875-0.277-1.387-0.277
			h-64c-5.888,0-10.667,4.779-10.667,10.667s4.779,10.667,10.667,10.667h56.939c-2.112,7.979-3.605,16.192-3.605,24.683v49.984
			c0,52.928,43.072,96,96,96h49.984c8.491,0,16.683-1.472,24.683-3.605v56.939c0,5.888,4.779,10.667,10.667,10.667
			s10.667-4.779,10.667-10.667v-64c0-0.491-0.213-0.917-0.277-1.387c7.979-4.352,15.573-9.472,22.165-16.064l31.467-31.467
			l107.2,107.2c10.539,10.581,24.597,16.384,39.552,16.384c30.805,0,55.893-25.088,55.872-55.915
			c0-14.933-5.824-28.949-16.384-39.531L399.083,320.005z M380.267,96.667l35.115,35.115l-8.555,59.797
			c-45.632-4.331-82.027-40.747-86.379-86.357L380.267,96.667z M384,270.341c0,8.555-3.328,16.576-9.365,22.635l-1.28,1.28
			l-70.251-70.251l37.909-37.888c12.416,10.368,27.029,18.112,42.987,22.656L384,270.341L384,270.341z M241.685,128.027h61.547
			c4.544,15.979,12.309,30.592,22.677,43.008l-37.888,37.888l-57.003-57.024c-4.651-4.651-8.171-9.856-11.072-15.232
			C225.835,131.205,233.643,128.027,241.685,128.027z M85.354,352.005v-49.984c0-19.947,7.765-38.699,21.867-52.8l31.467-31.488
			l70.251,70.251L100.416,396.507C91.093,384.048,85.354,368.731,85.354,352.005z M262.827,404.805
			c-14.123,14.101-32.853,21.867-52.821,21.867h-49.984c-16.747,0-32.043-5.739-44.501-15.083l108.523-108.523l70.251,70.251
			L262.827,404.805z M456.149,490.672h-0.043c-9.237,0-17.92-3.605-24.448-10.133L141.76,190.64
			c-2.027-2.027-4.757-3.115-7.552-3.115c-1.024,0-2.069,0.128-3.072,0.448c-9.131,2.752-16.896,4.032-24.448,4.032
			c-23.744,0-45.781-9.515-62.059-26.816c-12.053-12.8-19.691-28.544-22.272-45.504l46.891,28.117
			c3.093,1.899,6.976,2.027,10.24,0.405l4.501-2.24c27.179-13.589,44.053-40.917,44.053-71.296c0-3.755-1.963-7.232-5.184-9.152
			l-56.32-33.792c12.096-6.656,25.365-10.219,39.104-10.389c0.277,0,0.533,0,0.832,0c20.608,0,41.536,9.771,57.6,26.901
			c19.947,21.269,28.8,40.747,27.883,61.312c-0.853,20.416,7.872,41.344,24,57.451l64.448,64.448
			c0.043,0.043,0.043,0.085,0.064,0.107s0.085,0.043,0.107,0.064l85.163,85.163c0.021,0.021,0.043,0.064,0.064,0.085
			c0.021,0.021,0.064,0.043,0.085,0.064l114.688,114.688c6.528,6.528,10.133,15.211,10.133,24.469
			C490.709,475.163,475.221,490.672,456.149,490.672z"/>
	</g>
</g>
<g>
</g>
<g>
</g>
<g>
</g>
<g>
</g>
<g>
</g>
<g>
</g>
<g>
</g>
<g>
</g>
<g>
</g>
<g>
</g>
<g>
</g>
<g>
</g>
<g>
</g>
<g>
</g>
<g>
</g>
</svg>
