<?xml version="1.0" encoding="iso-8859-1"?>
<!-- Generator: Adobe Illustrator 19.0.0, SVG Export Plug-In . SVG Version: 6.00 Build 0)  -->
<svg version="1.1" id="Layer_1" xmlns="http://www.w3.org/2000/svg" xmlns:xlink="http://www.w3.org/1999/xlink" x="0px" y="0px"
	 viewBox="0 0 490.664 490.664" style="enable-background:new 0 0 490.664 490.664;" xml:space="preserve">
<g>
	<g>
		<path d="M23.264,245.397L127.627,83.093c3.2-4.971,1.749-11.563-3.2-14.741c-4.949-3.179-11.541-1.749-14.741,3.2l-107.989,168
			c-2.24,3.477-2.261,7.936-0.064,11.435l106.667,170.667c2.027,3.243,5.483,5.013,9.024,5.013c1.941,0,3.904-0.512,5.632-1.643
			c4.992-3.115,6.507-9.707,3.392-14.699L23.264,245.397z"/>
	</g>
</g>
<g>
	<g>
		<path d="M489.035,239.68L382.368,69.013c-3.115-5.013-9.749-6.507-14.699-3.392c-4.992,3.115-6.507,9.707-3.392,14.699
			l103.147,165.013L364.299,410.347c-3.136,4.992-1.6,11.584,3.392,14.699c1.749,1.109,3.691,1.621,5.632,1.621
			c3.541,0,7.019-1.771,9.024-5.013l106.667-170.667C491.211,247.531,491.211,243.136,489.035,239.68z"/>
	</g>
</g>
<g>
	<g>
		<path d="M159.99,320c-17.643,0-32,14.357-32,32s14.357,32,32,32c17.643,0,32-14.357,32-32S177.654,320,159.99,320z
			 M159.99,362.667c-5.867,0-10.667-4.779-10.667-10.667s4.8-10.667,10.667-10.667c5.867,0,10.667,4.779,10.667,10.667
			S165.878,362.667,159.99,362.667z"/>
	</g>
</g>
<g>
	<g>
		<path d="M245.323,320c-17.643,0-32,14.357-32,32s14.357,32,32,32s32-14.357,32-32S262.987,320,245.323,320z M245.323,362.667
			c-5.867,0-10.667-4.779-10.667-10.667s4.8-10.667,10.667-10.667S255.99,346.112,255.99,352S251.211,362.667,245.323,362.667z"/>
	</g>
</g>
<g>
	<g>
		<path d="M330.656,320c-17.643,0-32,14.357-32,32s14.357,32,32,32c17.643,0,32-14.357,32-32S348.32,320,330.656,320z
			 M330.656,362.667c-5.867,0-10.667-4.779-10.667-10.667s4.8-10.667,10.667-10.667c5.867,0,10.667,4.779,10.667,10.667
			S336.544,362.667,330.656,362.667z"/>
	</g>
</g>
<g>
</g>
<g>
</g>
<g>
</g>
<g>
</g>
<g>
</g>
<g>
</g>
<g>
</g>
<g>
</g>
<g>
</g>
<g>
</g>
<g>
</g>
<g>
</g>
<g>
</g>
<g>
</g>
<g>
</g>
</svg>
