<?xml version="1.0" encoding="iso-8859-1"?>
<!-- Generator: Adobe Illustrator 19.0.0, SVG Export Plug-In . SVG Version: 6.00 Build 0)  -->
<svg version="1.1" id="Layer_1" xmlns="http://www.w3.org/2000/svg" xmlns:xlink="http://www.w3.org/1999/xlink" x="0px" y="0px"
	 viewBox="0 0 512 512" style="enable-background:new 0 0 512 512;" xml:space="preserve">
<g>
	<g>
		<path d="M394.667,298.667h-21.333c-5.888,0-10.667,4.779-10.667,10.667v85.333c0,5.888,4.779,10.667,10.667,10.667
			c5.888,0,10.667-4.779,10.667-10.667v-32h10.667c17.643,0,32-14.357,32-32C426.667,313.024,412.309,298.667,394.667,298.667z
			 M394.667,341.333H384V320h10.667c5.888,0,10.667,4.779,10.667,10.667S400.555,341.333,394.667,341.333z"/>
	</g>
</g>
<g>
	<g>
		<path d="M480,298.667h-21.333c-5.888,0-10.667,4.779-10.667,10.667v85.333c0,5.888,4.779,10.667,10.667,10.667
			s10.667-4.779,10.667-10.667v-32H480c17.643,0,32-14.357,32-32C512,313.024,497.643,298.667,480,298.667z M480,341.333h-10.667
			V320H480c5.888,0,10.667,4.779,10.667,10.667S485.888,341.333,480,341.333z"/>
	</g>
</g>
<g>
	<g>
		<path d="M340.672,390.912l-32-85.333c-3.136-8.32-16.875-8.32-19.989,0l-32,85.333c-2.069,5.525,0.725,11.669,6.229,13.739
			c5.525,2.048,11.669-0.725,13.739-6.229L282.048,384h33.216l5.397,14.421c1.621,4.267,5.696,6.912,10.005,6.912
			c1.259,0,2.517-0.213,3.776-0.683C339.947,402.581,342.741,396.437,340.672,390.912z M290.048,362.667l8.619-22.955l8.619,22.955
			H290.048z"/>
	</g>
</g>
<g>
	<g>
		<path d="M373.333,277.333c5.888,0,10.667-4.779,10.667-10.667v-256C384,4.779,379.221,0,373.333,0H138.667
			c-1.429,0-2.816,0.299-4.117,0.832c-0.619,0.256-1.088,0.725-1.643,1.088c-0.597,0.384-1.28,0.683-1.792,1.195l-128,128
			c-0.491,0.491-0.768,1.152-1.152,1.728c-0.384,0.576-0.875,1.067-1.131,1.707C0.299,135.851,0,137.237,0,138.667v362.667
			C0,507.221,4.779,512,10.667,512h362.667c5.888,0,10.667-4.779,10.667-10.667v-64c0-5.888-4.779-10.667-10.667-10.667
			c-5.888,0-10.667,4.779-10.667,10.667v53.333H21.333V149.333h117.333c5.888,0,10.667-4.779,10.667-10.667V21.333h213.333v245.333
			C362.667,272.555,367.445,277.333,373.333,277.333z M128,128H36.416L128,36.416V128z"/>
	</g>
</g>
<g>
</g>
<g>
</g>
<g>
</g>
<g>
</g>
<g>
</g>
<g>
</g>
<g>
</g>
<g>
</g>
<g>
</g>
<g>
</g>
<g>
</g>
<g>
</g>
<g>
</g>
<g>
</g>
<g>
</g>
</svg>
