<?xml version="1.0" encoding="iso-8859-1"?>
<!-- Generator: Adobe Illustrator 19.0.0, SVG Export Plug-In . SVG Version: 6.00 Build 0)  -->
<svg version="1.1" id="Layer_1" xmlns="http://www.w3.org/2000/svg" xmlns:xlink="http://www.w3.org/1999/xlink" x="0px" y="0px"
	 viewBox="0 0 512.001 512.001" style="enable-background:new 0 0 512.001 512.001;" xml:space="preserve">
<g>
	<g>
		<path d="M511.68,370.753c-1.216-4.928-10.581-29.419-74.347-29.419c-52.736,0-80.128,43.691-104.32,82.219
			c-21.632,34.517-42.091,67.115-77.013,67.115c-66.816,0-89.429-40.149-94.656-64h19.989c17.643,0,32-14.357,32-32v-32
			c0-30.059,14.357-58.752,38.4-76.8c29.397-22.037,46.933-57.131,46.933-93.867v-53.333c0-17.643-14.357-32-32-32h-32v-96
			c0-5.888-4.779-10.667-10.667-10.667s-10.667,4.779-10.667,10.667v96h-128v-96c0-5.888-4.779-10.667-10.667-10.667
			S64,4.779,64,10.667v96H32c-17.643,0-32,14.357-32,32v53.333c0,36.736,17.557,71.829,46.933,93.867
			c24.043,18.048,38.4,46.741,38.4,76.8v32c0,17.643,14.357,32,32,32h22.251c5.44,36.736,38.72,85.333,116.416,85.333
			c46.72,0,71.317-39.189,95.104-77.099c23.296-37.141,45.312-72.235,86.229-72.235c45.76,0,53.483,13.291,53.653,13.291v-0.021
			c1.429,5.696,7.232,9.195,12.928,7.744C509.632,382.251,513.109,376.47,511.68,370.753z M117.333,405.334
			c-5.888,0-10.667-4.779-10.667-10.667v-32c0-36.736-17.557-71.829-46.933-93.867c-24.043-18.048-38.4-46.741-38.4-76.8v-53.333
			c0-5.888,4.779-10.667,10.667-10.667h234.667c5.888,0,10.667,4.779,10.667,10.667v53.333c0,30.059-14.357,58.752-38.4,76.8
			C209.536,290.838,192,325.931,192,362.667v32c0,5.888-4.779,10.667-10.667,10.667H117.333z"/>
	</g>
</g>
<g>
	<g>
		<path d="M149.333,192.001c-23.531,0-42.667,19.136-42.667,42.667c0,23.531,19.136,42.667,42.667,42.667
			c23.531,0,42.667-19.136,42.667-42.667C192,211.137,172.864,192.001,149.333,192.001z M149.333,256.001
			c-11.755,0-21.333-9.579-21.333-21.333c0-11.755,9.579-21.333,21.333-21.333c11.755,0,21.333,9.579,21.333,21.333
			C170.667,246.422,161.088,256.001,149.333,256.001z"/>
	</g>
</g>
<g>
</g>
<g>
</g>
<g>
</g>
<g>
</g>
<g>
</g>
<g>
</g>
<g>
</g>
<g>
</g>
<g>
</g>
<g>
</g>
<g>
</g>
<g>
</g>
<g>
</g>
<g>
</g>
<g>
</g>
</svg>
