<?xml version="1.0" encoding="iso-8859-1"?>
<!-- Generator: Adobe Illustrator 19.0.0, SVG Export Plug-In . SVG Version: 6.00 Build 0)  -->
<svg version="1.1" id="Layer_1" xmlns="http://www.w3.org/2000/svg" xmlns:xlink="http://www.w3.org/1999/xlink" x="0px" y="0px"
	 viewBox="0 0 512 512" style="enable-background:new 0 0 512 512;" xml:space="preserve">
<g>
	<g>
		<path d="M500.011,442.325L334.933,277.248c17.472-27.861,27.733-60.672,27.733-95.915C362.667,81.344,281.344,0,181.333,0
			S0,81.344,0,181.333s81.344,181.333,181.333,181.333c35.221,0,68.011-10.261,95.872-27.691l165.077,165.056
			c7.616,7.595,18.112,11.968,28.885,11.968C493.717,512,512,493.675,512,471.211C512,460.459,507.605,449.941,500.011,442.325z
			 M181.333,341.333c-88.235,0-160-71.765-160-160s71.787-160,160-160s160,71.765,160,160S269.568,341.333,181.333,341.333z
			 M471.168,490.688c-5.141,0-10.155-2.091-13.781-5.717L294.912,322.496c10.155-8.171,19.392-17.408,27.563-27.563l162.475,162.453
			c3.605,3.648,5.717,8.683,5.717,13.803C490.667,481.941,481.899,490.688,471.168,490.688z"/>
	</g>
</g>
<g>
	<g>
		<path d="M87.509,181.312l38.72-58.091c3.264-4.907,1.92-11.52-2.965-14.784c-4.864-3.221-11.499-1.963-14.805,2.965l-42.667,64
			c-2.389,3.584-2.389,8.256,0,11.84l42.667,64c2.091,3.093,5.44,4.757,8.875,4.757c2.048,0,4.096-0.576,5.909-1.813
			c4.907-3.264,6.229-9.877,2.965-14.784L87.509,181.312z"/>
	</g>
</g>
<g>
	<g>
		<path d="M205.269,85.653c-5.76-1.493-11.52,2.027-12.928,7.765l-42.667,170.667c-1.429,5.717,2.027,11.499,7.765,12.928
			c0.853,0.213,1.728,0.32,2.56,0.32c4.8,0,9.152-3.221,10.347-8.085l42.667-170.667C214.443,92.864,211.008,87.083,205.269,85.653z
			"/>
	</g>
</g>
<g>
	<g>
		<path d="M296.896,175.424l-42.667-64c-3.285-4.928-9.941-6.208-14.784-2.965c-4.907,3.264-6.229,9.877-2.965,14.784l38.699,58.091
			l-38.72,58.091c-3.264,4.907-1.92,11.52,2.965,14.784c1.813,1.216,3.861,1.792,5.909,1.792c3.435,0,6.805-1.664,8.875-4.736
			l42.667-64C299.285,183.68,299.285,179.008,296.896,175.424z"/>
	</g>
</g>
<g>
</g>
<g>
</g>
<g>
</g>
<g>
</g>
<g>
</g>
<g>
</g>
<g>
</g>
<g>
</g>
<g>
</g>
<g>
</g>
<g>
</g>
<g>
</g>
<g>
</g>
<g>
</g>
<g>
</g>
</svg>
